<?xml version="1.0" encoding="UTF-8" standalone="no"?>
<!-- Generator: Adobe Illustrator 19.2.1, SVG Export Plug-In . SVG Version: 6.00 Build 0)  -->

<svg
   xmlns:dc="http://purl.org/dc/elements/1.1/"
   xmlns:cc="http://creativecommons.org/ns#"
   xmlns:rdf="http://www.w3.org/1999/02/22-rdf-syntax-ns#"
   xmlns:svg="http://www.w3.org/2000/svg"
   xmlns="http://www.w3.org/2000/svg"
   xmlns:sodipodi="http://sodipodi.sourceforge.net/DTD/sodipodi-0.dtd"
   xmlns:inkscape="http://www.inkscape.org/namespaces/inkscape"
   version="1.1"
   id="svg5158"
   x="0px"
   y="0px"
   viewBox="0 0 913.50003 1048"
   xml:space="preserve"
   sodipodi:docname="brandmark.svg"
   inkscape:version="0.92.2 5c3e80d, 2017-08-06"
   width="913.5"
   height="1048"><metadata
     id="metadata975"><rdf:RDF><cc:Work
         rdf:about=""><dc:format>image/svg+xml</dc:format><dc:type
           rdf:resource="http://purl.org/dc/dcmitype/StillImage" /><dc:title></dc:title></cc:Work></rdf:RDF></metadata><defs
     id="defs973" /><sodipodi:namedview
     pagecolor="#ffffff"
     bordercolor="#666666"
     borderopacity="1"
     objecttolerance="10"
     gridtolerance="10"
     guidetolerance="10"
     inkscape:pageopacity="0"
     inkscape:pageshadow="2"
     inkscape:window-width="1466"
     inkscape:window-height="920"
     id="namedview971"
     showgrid="false"
     inkscape:zoom="0.50024584"
     inkscape:cx="201.45338"
     inkscape:cy="469.01071"
     inkscape:window-x="110"
     inkscape:window-y="101"
     inkscape:window-maximized="0"
     inkscape:current-layer="g968"
     fit-margin-top="0"
     fit-margin-left="0"
     fit-margin-right="0"
     fit-margin-bottom="0" /><style
     type="text/css"
     id="style923">
	.st0{fill:#333333;}
	.st1{enable-background:new    ;}
</style><polygon
     id="polygon5306"
     class="st0"
     points="969,614.2 836,693.1 969,768.8 1103.4,693.1 "
     style="fill:#333333"
     transform="translate(-356.9,-164.4)" /><polygon
     id="polygon5308"
     class="st0"
     points="948.9,782.7 873.1,739.4 826.8,711.6 826.8,852.3 "
     style="fill:#333333"
     transform="translate(-356.9,-164.4)" /><polygon
     id="polygon5310"
     class="st0"
     points="814.4,164.4 681.5,241.7 814.4,319 948.9,241.7 "
     style="fill:#333333"
     transform="translate(-356.9,-164.4)" /><polygon
     id="polygon5312"
     class="st0"
     points="969,408.7 981.3,402.5 1103.4,332.9 981.3,260.3 969,254.1 836,332.9 959.7,402.5 "
     style="fill:#333333"
     transform="translate(-356.9,-164.4)" /><polygon
     id="polygon5314"
     class="st0"
     points="959.7,441.1 959.7,428.8 959.7,428.8 948.9,422.6 859.2,370 826.8,351.5 826.8,492.1 826.8,504.5 836,512.2 959.7,581.8 "
     style="fill:#333333"
     transform="translate(-356.9,-164.4)" /><polygon
     id="polygon5316"
     class="st0"
     points="647.5,260.3 525.3,332.9 647.5,402.5 658.3,408.7 669.1,402.5 792.8,332.9 718.6,289.6 669.1,260.3 658.3,254.1 "
     style="fill:#333333"
     transform="translate(-356.9,-164.4)" /><polygon
     id="polygon5318"
     class="st0"
     points="803.6,351.5 803.6,351.5 681.5,422.6 669.1,428.8 669.1,441.1 669.1,581.8 792.8,512.2 803.6,504.5 803.6,492.1 "
     style="fill:#333333"
     transform="translate(-356.9,-164.4)" /><polygon
     id="polygon5320"
     class="st0"
     points="1114.3,852.3 1126.6,858.5 1137.4,852.3 1259.5,782.7 1137.4,711.6 1126.6,705.4 1114.3,711.6 1114.3,711.6 1111.2,713.2 1078.7,733.3 1075.6,733.3 992.1,782.7 "
     style="fill:#333333"
     transform="translate(-356.9,-164.4)" /><polygon
     id="polygon5322"
     class="st0"
     points="1270.4,954.3 1270.4,801.3 1137.4,878.6 1137.4,1033.1 "
     style="fill:#333333"
     transform="translate(-356.9,-164.4)" /><polygon
     id="polygon5324"
     class="st0"
     points="1126.6,345.3 1114.3,351.5 1114.3,351.5 1114.3,351.5 1084.9,368.5 1072.5,374.7 992.1,422.6 1114.3,492.1 1126.6,498.3 1137.4,492.1 1259.5,422.6 1137.4,351.5 "
     style="fill:#333333"
     transform="translate(-356.9,-164.4)" /><polygon
     id="polygon5326"
     class="st0"
     points="1114.3,518.4 1114.3,518.4 1103.4,512.2 981.3,441.1 981.3,581.8 981.3,594.1 992.1,601.9 1084.9,654.4 1114.3,673 1114.3,530.8 "
     style="fill:#333333"
     transform="translate(-356.9,-164.4)" /><polygon
     id="polygon5328"
     class="st0"
     points="1137.4,518.4 1137.4,673 1270.4,594.1 1270.4,441.1 1137.4,518.4 "
     style="fill:#333333"
     transform="translate(-356.9,-164.4)" /><polygon
     id="polygon5330"
     class="st0"
     points="969,948.1 981.3,943.5 1027.7,915.7 1103.4,872.4 981.3,801.3 969,795.1 969,795.1 959.7,801.3 959.7,801.3 837.6,872.4 959.7,943.5 "
     style="fill:#333333"
     transform="translate(-356.9,-164.4)" /><polygon
     id="polygon5332"
     class="st0"
     points="1114.3,1033.1 1114.3,890.9 1069.4,918.7 992.1,962 981.3,968.2 981.3,980.6 981.3,1122.8 1103.4,1053.2 1114.3,1045.5 "
     style="fill:#333333"
     transform="translate(-356.9,-164.4)" /><polygon
     id="polygon5334"
     class="st0"
     points="356.9,954.3 489.8,1033.1 489.8,878.6 404.8,827.5 356.9,801.3 "
     style="fill:#333333"
     transform="translate(-356.9,-164.4)" /><polygon
     id="polygon5336"
     class="st0"
     points="647.5,943.5 658.3,948.1 669.1,943.5 792.8,872.4 669.1,801.3 658.3,795.1 647.5,801.3 598,829.1 525.3,872.4 "
     style="fill:#333333"
     transform="translate(-356.9,-164.4)" /><polygon
     id="polygon5338"
     class="st0"
     points="647.5,980.6 647.5,968.2 635.1,962 513,890.9 513,1033.1 513,1045.5 525.3,1053.2 647.5,1122.8 "
     style="fill:#333333"
     transform="translate(-356.9,-164.4)" /><polygon
     id="polygon5340"
     class="st0"
     points="826.8,890.9 814.4,884.7 814.4,884.7 803.6,890.9 689.2,955.8 681.5,962 803.6,1033.1 814.4,1039.3 826.8,1033.1 948.9,962 "
     style="fill:#333333"
     transform="translate(-356.9,-164.4)" /><polygon
     id="polygon5342"
     class="st0"
     points="803.6,1071.8 803.6,1059.4 792.8,1053.2 715.5,1008.4 669.1,980.6 669.1,1122.8 669.1,1135.1 681.5,1142.9 803.6,1212.4 "
     style="fill:#333333"
     transform="translate(-356.9,-164.4)" /><polygon
     id="polygon5344"
     class="st0"
     points="826.8,1071.8 826.8,1212.4 948.9,1142.9 959.7,1135.1 959.7,1135.1 959.7,1122.8 959.7,980.6 959.7,980.6 836,1053.2 826.8,1059.4 "
     style="fill:#333333"
     transform="translate(-356.9,-164.4)" /><polygon
     id="polygon5346"
     class="st0"
     points="356.9,620.4 356.9,762.6 356.9,775 381.6,788.9 445,826 489.8,852.3 489.8,711.6 489.8,699.3 480.5,693.1 387.8,639 "
     style="fill:#333333"
     transform="translate(-356.9,-164.4)" /><polygon
     id="polygon5348"
     class="st0"
     points="647.5,620.4 599.5,648.2 525.3,693.1 513,699.3 513,711.6 513,852.3 588.7,810.5 625.8,787.4 647.5,775 647.5,762.6 "
     style="fill:#333333"
     transform="translate(-356.9,-164.4)" /><polygon
     id="polygon5350"
     class="st0"
     points="547,370 534.6,363.8 502.2,345.3 502.2,345.3 489.8,351.5 367.7,422.6 489.8,492.1 502.2,498.3 513,492.1 635.1,422.6 "
     style="fill:#333333"
     transform="translate(-356.9,-164.4)" /><polygon
     id="polygon5352"
     class="st0"
     points="356.9,581.8 356.9,594.1 397.1,618.9 462,654.4 489.8,673 489.8,530.8 489.8,518.4 489.8,518.4 480.5,512.2 356.9,441.1 "
     style="fill:#333333"
     transform="translate(-356.9,-164.4)" /><polygon
     id="polygon5354"
     class="st0"
     points="635.1,601.9 647.5,594.1 647.5,581.8 647.5,441.1 525.3,512.2 513,518.4 513,518.4 513,530.8 513,530.8 513,673 562.4,645.2 "
     style="fill:#333333"
     transform="translate(-356.9,-164.4)" /><g
     class="st1"
     id="g968"
     style="enable-background:new"
     transform="translate(-356.9,-164.4)" /></svg>
